<?xml version="1.0" encoding="UTF-8" standalone="no"?>
<!DOCTYPE svg PUBLIC "-//W3C//DTD SVG 1.1//EN" "http://www.w3.org/Graphics/SVG/1.1/DTD/svg11.dtd">
<svg width="100%" height="100%" viewBox="0 0 800 600" version="1.1" xmlns="http://www.w3.org/2000/svg" xmlns:xlink="http://www.w3.org/1999/xlink" xml:space="preserve" xmlns:serif="http://www.serif.com/" style="fill-rule:evenodd;clip-rule:evenodd;stroke-linejoin:round;stroke-miterlimit:1.41421;">
    <g transform="matrix(2.03042,0,0,2.21271,-466.16,-19.8895)">
        <rect x="229.588" y="8.989" width="394.007" height="271.161" style="fill:rgb(255,196,0);"/>
        <path d="M623.596,280.15L229.588,280.15L229.588,8.989L623.596,8.989L623.596,280.15ZM239.438,271.111L613.745,271.111L613.745,18.027L239.438,18.027L239.438,271.111Z"/>
    </g>
    <g transform="matrix(1.15086,0,0,1.33571,-66.8103,-133.363)">
        <rect x="101.498" y="177.528" width="608.24" height="334.082"/>
    </g>
    <g transform="matrix(1,0,0,1,0,-54.7133)">
        <g transform="matrix(0.656444,0,0,0.656444,55.1502,134.907)">
            <path d="M223.603,396.067L97.004,522.667L75.46,501.124L180.516,396.067L75.46,291.011L97.004,269.468L223.603,396.067Z" style="fill:rgb(255,196,0);"/>
        </g>
        <g transform="matrix(0.822682,0,0,0.822682,27.3921,48.7856)">
            <g transform="matrix(1,0,0,1,8.50876,0)">
                <path d="M282.429,337.133L304.833,337.133L307.012,360.16C313.443,351.862 321.585,345.379 331.439,340.712C341.293,336.044 351.199,333.71 361.156,333.71C391.859,333.71 407.211,349.891 407.211,382.254L407.211,501.124L381.072,501.124L381.072,401.547C381.072,389.307 380.398,379.972 379.049,373.541C377.701,367.11 375.056,362.338 371.114,359.227C367.173,356.115 361.156,354.559 353.066,354.559C344.145,354.559 335.744,357.256 327.861,362.65C319.977,368.043 313.546,374.474 308.568,381.943L308.568,501.124L282.429,501.124L282.429,337.133Z" style="fill:rgb(255,196,0);fill-rule:nonzero;"/>
            </g>
            <g transform="matrix(1,0,0,1,-2.43107,0)">
                <path d="M489.984,428.308C490.606,446.356 495.326,459.944 504.143,469.072C512.959,478.2 524.11,482.764 537.594,482.764C545.685,482.764 553.101,481.571 559.843,479.186C566.585,476.8 573.794,473.118 581.47,468.139L593.606,485.565C585.93,491.581 577.165,496.248 567.312,499.568C557.458,502.887 547.552,504.547 537.594,504.547C513.945,504.547 495.533,496.819 482.36,481.364C469.187,465.909 462.6,445.215 462.6,419.284C462.6,402.895 465.505,388.218 471.313,375.252C477.122,362.287 485.42,352.121 496.207,344.757C506.995,337.392 519.546,333.71 533.86,333.71C554.605,333.71 570.942,340.919 582.87,355.337C594.799,369.755 600.763,389.411 600.763,414.305C600.763,419.076 600.556,423.744 600.141,428.308L489.984,428.308ZM534.171,355.181C521.517,355.181 511.248,359.693 503.365,368.718C495.481,377.742 491.021,390.967 489.984,408.393L575.247,408.393C575.039,391.174 571.305,378.001 564.044,368.873C556.783,359.745 546.826,355.181 534.171,355.181Z" style="fill:rgb(255,196,0);fill-rule:nonzero;"/>
            </g>
            <path d="M740.482,501.124L719.011,381.009L695.983,501.124L659.887,501.124L630.325,337.133L656.775,337.133L677.935,484.942L704.074,357.982L734.881,357.982L759.464,484.942L780.624,337.133L805.829,337.133L777.512,501.124L740.482,501.124Z" style="fill:rgb(255,196,0);fill-rule:nonzero;"/>
        </g>
    </g>
</svg>
